<svg width="18" height="18" viewBox="0 0 18 18" fill="none" xmlns="http://www.w3.org/2000/svg">
<path d="M1.72113 17.1768L1.89791 17.3536L2.07468 17.1768L9 10.2515L15.9253 17.1768L16.1021 17.3536L16.2789 17.1768L17.1768 16.2789L17.3536 16.1021L17.1768 15.9253L10.2515 9L17.1768 2.07468L17.3536 1.89791L17.1768 1.72113L16.2789 0.823223L16.1021 0.646447L15.9253 0.823223L9 7.74854L2.07468 0.823223L1.89791 0.646447L1.72113 0.823223L0.823223 1.72113L0.646447 1.89791L0.823223 2.07468L7.74854 9L0.823223 15.9253L0.646447 16.1021L0.823223 16.2789L1.72113 17.1768Z" fill="#253786" stroke="#253786" stroke-width="0.5"/>
</svg>
